<?xml version="1.0" encoding="UTF-8"?>
<svg id="Calque_1" data-name="Calque 1" xmlns="http://www.w3.org/2000/svg" viewBox="0 0 32 32">
  <defs>
    <style>
      .cls-1 {
        fill: #fff;
      }
    </style>
  </defs>
  <path class="cls-1" d="M16.28,13.37l.89-5.25h-5.27l-.67,3.94H3.37s1.56-9.19,1.56-9.19h17.15s-2.67,15.75-2.67,15.75h-9.29l-.89,5.25h5.27l.67-3.94h4.02l-1.57,9.19H.48l2.3-13.57c.21-1.26,1.31-2.19,2.59-2.19h10.91Z"/>
  <polygon class="cls-1" points="19.51 29.13 23.96 2.87 24.76 2.87 20.3 29.13 19.51 29.13"/>
  <polygon class="cls-1" points="27.38 2.87 22.93 29.13 21.34 29.13 25.8 2.87 27.38 2.87"/>
  <polygon class="cls-1" points="31.58 2.87 27.13 29.13 23.97 29.13 28.43 2.87 31.58 2.87"/>
  <polygon class="cls-1" points="29.75 2.87 25.29 29.13 22.13 29.13 26.59 2.87 29.75 2.87"/>
  <polygon class="cls-1" points="27.38 2.87 22.93 29.13 19.77 29.13 24.23 2.87 27.38 2.87"/>
</svg>