<?xml version="1.0" encoding="UTF-8"?>
<svg version="1.1" xmlns="http://www.w3.org/2000/svg" width="225" height="225">
<path d="M0 0 C74.25 0 148.5 0 225 0 C225 74.25 225 148.5 225 225 C150.75 225 76.5 225 0 225 C0 150.75 0 76.5 0 0 Z " fill="#FEFEFE" transform="translate(0,0)"/>
<path d="M0 0 C1.04085251 0.00007553 2.08170502 0.00015106 3.15409851 0.00022888 C4.27605118 0.00539017 5.39800385 0.01055145 6.55395508 0.01586914 C8.27887932 0.01799156 8.27887932 0.01799156 10.03865051 0.02015686 C13.71695541 0.02576111 17.39519978 0.03831435 21.07348633 0.05102539 C23.56502191 0.05603984 26.05655844 0.06060284 28.5480957 0.06469727 C34.66074662 0.07573192 40.77336215 0.09247421 46.88598633 0.11352539 C46.15026019 4.23359175 44.9652711 7.45398419 42.88598633 11.11352539 C40.48952889 12.31175411 38.92936606 12.26979854 36.25268555 12.31884766 C35.29184052 12.33879288 34.33099548 12.3587381 33.34103394 12.37928772 C31.78160568 12.40435646 31.78160568 12.40435646 30.19067383 12.42993164 C28.59680344 12.46110329 28.59680344 12.46110329 26.97073364 12.49290466 C23.56755195 12.558428 20.16429144 12.61729812 16.76098633 12.67602539 C14.45759267 12.71920796 12.15420707 12.76282216 9.85083008 12.80688477 C4.19596612 12.91411221 -1.4589767 13.01587341 -7.11401367 13.11352539 C-6.45401367 13.44352539 -5.79401367 13.77352539 -5.11401367 14.11352539 C-5.44401367 16.09352539 -5.77401367 18.07352539 -6.11401367 20.11352539 C-5.1457666 20.09257813 -4.17751953 20.07163086 -3.17993164 20.05004883 C0.43173278 19.97734027 4.04333324 19.93161483 7.65551758 19.89379883 C9.21519877 19.87375317 10.77480545 19.84650882 12.33422852 19.81176758 C14.58343947 19.76293413 16.83165223 19.74048725 19.08129883 19.72290039 C20.11759933 19.69193268 20.11759933 19.69193268 21.17483521 19.66033936 C26.20163558 19.65803908 29.02022771 20.95962939 32.88598633 24.11352539 C34.43030181 27.20215636 34.1202618 29.6903062 33.88598633 33.11352539 C32.92109041 35.68009292 31.96191238 37.90234694 30.69848633 40.30102539 C30.40651367 40.90366211 30.11454102 41.50629883 29.8137207 42.12719727 C27.07507121 47.49259445 23.41219619 50.8070231 17.88598633 53.11352539 C15.3928833 53.35403442 15.3928833 53.35403442 12.56665039 53.34057617 C11.50585266 53.34042511 10.44505493 53.34027405 9.35211182 53.34011841 C8.21344666 53.32979584 7.07478149 53.31947327 5.90161133 53.30883789 C4.14551544 53.30459305 4.14551544 53.30459305 2.35394287 53.30026245 C-1.38547992 53.28906695 -5.12466326 53.26396315 -8.86401367 53.23852539 C-11.39916646 53.22849479 -13.93432301 53.21936908 -16.46948242 53.21118164 C-22.68440788 53.18912965 -28.89919367 53.15565814 -35.11401367 53.11352539 C-34.68806779 51.67255953 -34.24774734 50.23583827 -33.80151367 48.80102539 C-33.55788086 48.00051758 -33.31424805 47.20000977 -33.06323242 46.37524414 C-32.03556446 43.92660318 -31.25181564 42.6821666 -29.11401367 41.11352539 C-27.0448761 40.75276184 -27.0448761 40.75276184 -24.64257812 40.77294922 C-23.74187088 40.77317581 -22.84116364 40.7734024 -21.91316223 40.77363586 C-20.45990791 40.79686165 -20.45990791 40.79686165 -18.97729492 40.82055664 C-17.98271774 40.82480148 -16.98814056 40.82904633 -15.96342468 40.8334198 C-12.78417993 40.85022386 -9.60556711 40.88787963 -6.42651367 40.92602539 C-4.27222595 40.94106998 -2.11792829 40.95475877 0.03637695 40.96704102 C5.31982388 41.00013312 10.60279793 41.05192768 15.88598633 41.11352539 C16.87598633 38.14352539 17.86598633 35.17352539 18.88598633 32.11352539 C17.81638672 32.13447266 16.74678711 32.15541992 15.64477539 32.17700195 C11.6716046 32.24947165 7.69849207 32.29535002 3.72485352 32.33325195 C2.00600354 32.35335167 0.28722181 32.38063628 -1.43139648 32.4152832 C-3.90389857 32.46387573 -6.37549578 32.48650974 -8.84838867 32.50415039 C-9.99860504 32.5351181 -9.99860504 32.5351181 -11.17205811 32.56671143 C-14.67621722 32.56818092 -16.70226293 32.4174484 -19.56030273 30.30786133 C-21.92908544 26.96238381 -22.58688812 24.11028611 -22.11401367 20.11352539 C-19.38840477 12.12759737 -15.20772179 5.78720516 -8.11401367 1.11352539 C-5.11034854 0.11230368 -3.13661774 -0.00759472 0 0 Z " fill="#231E1F" transform="translate(166.114013671875,92.886474609375)"/>
<path d="M0 0 C2.5 2.1875 2.5 2.1875 4 5 C4.09375 7.67578125 4.09375 7.67578125 4 10 C4.66531738 9.99476318 5.33063477 9.98952637 6.01611328 9.98413086 C9.05239911 9.96324747 12.08866978 9.9503038 15.125 9.9375 C16.17171875 9.92912109 17.2184375 9.92074219 18.296875 9.91210938 C23.3090905 9.89624793 28.07665912 9.91822787 33 11 C33 11.33 33 11.66 33 12 C31.02 12 29.04 12 27 12 C27 12.99 27 13.98 27 15 C22.38 15 17.76 15 13 15 C13 17.97 13 20.94 13 24 C12.05125 24.28875 11.1025 24.5775 10.125 24.875 C6.94788422 25.76825109 6.94788422 25.76825109 5 28 C1.375 27.625 1.375 27.625 -2 27 C-3.32 30.3 -4.64 33.6 -6 37 C-6.66 37 -7.32 37 -8 37 C-6.27700515 42.80745474 -3.44225472 47.59820849 -0.36328125 52.78125 C1.7424884 57.75303851 0.54152457 60.61849699 -1.375 65.5078125 C-1.91125 66.70148438 -2.4475 67.89515625 -3 69.125 C-5.41836028 74.42221903 -5.41836028 74.42221903 -7 80 C-5.35 80.66 -3.7 81.32 -2 82 C-2 82.66 -2 83.32 -2 84 C-4.88415883 85.44207941 -7.41721528 85.09394887 -10.625 85.0625 C-11.81351563 85.05347656 -13.00203125 85.04445313 -14.2265625 85.03515625 C-15.59941406 85.01775391 -15.59941406 85.01775391 -17 85 C-16.07607564 75.39118663 -14.37279555 66.15182773 -9 58 C-9.5775 57.79375 -10.155 57.5875 -10.75 57.375 C-13.84477636 55.48374778 -15.1918763 53.09964063 -17 50 C-17 49.34 -17 48.68 -17 48 C-17.66 48 -18.32 48 -19 48 C-19.14695312 48.53367188 -19.29390625 49.06734375 -19.4453125 49.6171875 C-22.11780758 58.49478611 -26.3624448 65.41909397 -32.75 72.125 C-36.72907445 76.35151269 -38.25696896 79.26804624 -39 85 C-41.64 85 -44.28 85 -47 85 C-45.18626301 76.53589406 -41.9293965 64.55471553 -35.35546875 58.48046875 C-33.26400021 56.19612703 -33.23410325 53.82858476 -32.8125 50.8125 C-32.65394531 49.72582031 -32.49539062 48.63914063 -32.33203125 47.51953125 C-32.16767578 46.27236328 -32.16767578 46.27236328 -32 45 C-31.34 45 -30.68 45 -30 45 C-29.71125 44.13375 -29.4225 43.2675 -29.125 42.375 C-28.39777043 40.19331129 -27.62939493 38.0247235 -26.8125 35.875 C-25.76972528 33.15461235 -25.76972528 33.15461235 -26.5625 31.0625 C-27.29263055 27.620456 -25.492733 25.10488464 -24 22 C-23.01 22 -22.02 22 -21 22 C-20.773125 21.13375 -20.54625 20.2675 -20.3125 19.375 C-18.71838715 15.27585268 -17.10713736 13.10713736 -14 10 C-12.68 10 -11.36 10 -10 10 C-10.3403125 8.3603125 -10.3403125 8.3603125 -10.6875 6.6875 C-11 3 -11 3 -10.0625 1.0625 C-6.77034988 -0.63345612 -3.55567038 -0.7655065 0 0 Z " fill="#242021" transform="translate(124,70)"/>
<path d="M0 0 C0.96069397 0.00007553 1.92138794 0.00015106 2.91119385 0.00022888 C3.94049011 0.00539017 4.96978638 0.01055145 6.03027344 0.01586914 C7.0900238 0.01728409 8.14977417 0.01869904 9.24163818 0.02015686 C12.62433705 0.02575158 16.00696959 0.03830314 19.38964844 0.05102539 C21.68391831 0.05604107 23.97818923 0.06060386 26.27246094 0.06469727 C31.89487938 0.07571928 37.51725917 0.09245218 43.13964844 0.11352539 C42.52109212 1.74098909 41.89457538 3.36542895 41.26464844 4.98852539 C40.91660156 5.89344727 40.56855469 6.79836914 40.20996094 7.73071289 C39.13964844 10.11352539 39.13964844 10.11352539 37.13964844 12.11352539 C35.19076538 12.39199829 35.19076538 12.39199829 32.78173828 12.43237305 C31.88095551 12.45224274 30.98017273 12.47211243 30.05209351 12.49258423 C29.07809601 12.50413544 28.10409851 12.51568665 27.10058594 12.52758789 C25.60659775 12.55663712 25.60659775 12.55663712 24.08242798 12.58627319 C20.89325594 12.64617504 17.704048 12.69249677 14.51464844 12.73852539 C12.35577831 12.7766954 10.19692356 12.81574655 8.03808594 12.85571289 C2.7387431 12.95188509 -2.560692 13.03690128 -7.86035156 13.11352539 C-6.87035156 14.10352539 -5.88035156 15.09352539 -4.86035156 16.11352539 C-8.49035156 24.36352539 -12.12035156 32.61352539 -15.86035156 41.11352539 C-2.33035156 41.11352539 11.19964844 41.11352539 25.13964844 41.11352539 C22.13964844 50.11352539 22.13964844 50.11352539 19.13964844 53.11352539 C17.10415649 53.50793457 17.10415649 53.50793457 14.74755859 53.53344727 C13.42070541 53.55731506 13.42070541 53.55731506 12.06704712 53.58166504 C10.63732071 53.58196716 10.63732071 53.58196716 9.17871094 53.58227539 C8.19599213 53.58988892 7.21327332 53.59750244 6.20077515 53.60534668 C4.12118063 53.61615523 2.0415318 53.61899773 -0.03808594 53.61450195 C-3.21674514 53.61353107 -6.39297945 53.65511438 -9.57128906 53.69946289 C-11.59211736 53.70467095 -13.61295405 53.70735807 -15.63378906 53.70727539 C-16.58289154 53.72367065 -17.53199402 53.74006592 -18.50985718 53.75695801 C-22.93187052 53.71076884 -25.21146353 53.55634693 -28.93701172 51.01391602 C-31.27828029 47.48329015 -31.83156098 45.34859178 -31.86035156 41.11352539 C-30.84399414 37.66015625 -30.84399414 37.66015625 -29.25488281 34.07836914 C-28.97440598 33.43662247 -28.69392914 32.79487579 -28.404953 32.13368225 C-27.81169409 30.78481447 -27.21033073 29.43948499 -26.60131836 28.09765625 C-25.67702819 26.06023198 -24.77747395 24.01329272 -23.88183594 21.96313477 C-16.57534084 5.45320686 -16.57534084 5.45320686 -8.86035156 1.11352539 C-5.85618254 0.15923961 -3.14289313 -0.00827077 0 0 Z " fill="#221E1F" transform="translate(42.8603515625,92.886474609375)"/>
<path d="M0 0 C0 0.33 0 0.66 0 1 C-1.98 1 -3.96 1 -6 1 C-6 1.99 -6 2.98 -6 4 C-10.62 4 -15.24 4 -20 4 C-20 3.67 -20 3.34 -20 3 C-15.71 3 -11.42 3 -7 3 C-7 2.34 -7 1.68 -7 1 C-14.92 1 -22.84 1 -31 1 C-31 0.67 -31 0.34 -31 0 C-27.1463114 -0.19832847 -23.29204822 -0.38171343 -19.4375 -0.5625 C-18.35146484 -0.61857422 -17.26542969 -0.67464844 -16.14648438 -0.73242188 C-10.60113681 -0.98524927 -5.4577939 -1.05710499 0 0 Z " fill="#140F10" transform="translate(157,81)"/>
</svg>
